<?xml version="1.0" encoding="UTF-8"?>
<svg width="87px" height="73px" viewBox="0 0 87 73" version="1.1" xmlns="http://www.w3.org/2000/svg" xmlns:xlink="http://www.w3.org/1999/xlink">
    <!-- Generator: Sketch 58 (84663) - https://sketch.com -->
    <title>enterprise vector</title>
    <desc>Created with Sketch.</desc>
    <g id="Master" stroke="none" stroke-width="1" fill="none" fill-rule="evenodd">
        <g id="1326-Litmus-Home-v6b" transform="translate(-728.000000, -2495.000000)">
            <g id="Group-6" transform="translate(0.000000, 1643.000000)">
                <g id="enterprise-vector" transform="translate(728.000000, 852.000000)">
                    <path d="M86.9015505,25.5137805 L79.6255538,1.65797685 C79.4504558,1.06599447 79.0463834,0.563624106 78.5049264,0.273063947 C77.9526942,-0.0229272419 77.3142598,-0.0799530674 76.740477,0.110133017 L53.0591416,7.43930935 C52.162101,7.71629193 51.5263604,8.50650694 51.4455459,9.42435117 C51.3431809,10.361204 51.8280678,11.2871948 52.6604569,11.7298238 L57.6790359,14.4127531 L55.8229967,17.9483543 C54.9502004,17.4894322 53.9238565,17.3943892 53.0402849,17.6903803 L29.3562557,25.0195567 C27.9285333,25.4649012 26.9264338,26.7086073 26.8025183,28.1532616 C26.6381955,29.6386485 27.4086268,31.1077424 28.723209,31.8056299 L32.556509,33.8558441 L12,73 L14.9578098,73 L36.198548,32.7261897 L29.9839148,29.4078297 C29.644494,29.2258902 29.439764,28.8375715 29.4855589,28.4220976 C29.5151908,28.050072 29.7791848,27.7296411 30.1509314,27.612874 L53.8484297,20.2782666 C54.0800979,20.2022322 54.341398,20.2321029 54.5703723,20.3515855 C54.7912652,20.4710682 54.9609756,20.6774474 55.0364025,20.9327059 L62.3043177,44.7776474 C62.3824384,45.0410524 62.3608879,45.3017419 62.24236,45.5271297 C62.1777084,45.6466124 62.0995877,45.7416554 61.9675908,45.844845 C61.6820463,46.0838104 61.2591172,46.1218276 60.9277778,45.9426036 L54.7158384,42.6242436 L38.7711422,73 L41.7262582,73 L41.728952,72.9972845 L53.6463935,72.9972845 L78.5776595,25.5789529 L83.6016261,28.2618822 C84.4232399,28.7017957 85.4226456,28.6013216 86.133813,28.0120548 C86.3870317,27.8111066 86.5890679,27.5667102 86.7345339,27.2870121 C87.011997,26.7602021 87.0793424,26.1302025 86.9015505,25.5137805" id="Fill-1" fill="#235BA8"></path>
                    <path d="M5.71032764,50.4460121 L10.7240115,53.0638857 L0,73 L26.7279914,73 L31.5910495,63.9593272 L36.6047334,66.5772008 C37.4251054,67.0064473 38.4256904,66.9084095 39.1330932,66.3334312 C39.3886189,66.1373557 39.5903498,65.8988854 39.735596,65.6259694 C40.0126397,65.1119335 40.0798833,64.4972102 39.8996704,63.8957351 L32.6373602,40.6157378 C32.4625268,40.0407595 32.0563753,39.5505706 31.5184264,39.2670559 C30.9643391,38.9782419 30.3268696,38.9225989 29.753954,39.1054261 L6.10840983,46.2595341 C5.21272491,46.5298004 4.58063494,47.3008542 4.4999426,48.1964426 C4.39773231,49.1105786 4.87919658,50.0141159 5.71032764,50.4460121" id="Fill-3" fill="#29B17B"></path>
                </g>
            </g>
        </g>
    </g>
</svg>