<?xml version="1.0" encoding="UTF-8"?>
<svg width="121px" height="22px" viewBox="0 0 121 22" version="1.1" xmlns="http://www.w3.org/2000/svg" xmlns:xlink="http://www.w3.org/1999/xlink">
    <!-- Generator: Sketch 58 (84663) - https://sketch.com -->
    <title>hsbc-logo</title>
    <desc>Created with Sketch.</desc>
    <g id="Master" stroke="none" stroke-width="1" fill="none" fill-rule="evenodd">
        <g id="1326-Litmus-Home-v6b" transform="translate(-573.000000, -1370.000000)" fill-rule="nonzero">
            <g id="hsbc-logo" transform="translate(573.000000, 1370.000000)">
                <path d="M15.9,11.9 L15.9,19.2 C15.9,20.1 15.1,20.9 14.1,20.9 L13,20.9 L13,21.2 L21.4,21.2 L21.4,20.9 L20.3,20.9 C19.2,20.9 18.5,20.1 18.5,19.2 L18.5,11.7 L18.5,2.8 C18.5,2 19.3,1.1 20.3,1.1 L21.4,1.1 L21.4,0.8 L13.1,0.8 L13.1,1.1 L14.2,1.1 C15.3,1.1 16,1.9 16,2.8 L16,10.8 L6.1,10.8 L6.1,2.8 C6.1,2 6.8,1.1 7.9,1.1 L9,1.1 L9,0.8 L0.5,0.8 L0.5,1.1 L1.6,1.1 C2.7,1.1 3.4,1.9 3.4,2.8 L3.4,11.7 L3.4,19.2 C3.4,20.1 2.6,20.9 1.6,20.9 L0.5,20.9 L0.5,21.2 L8.8,21.2 L8.8,21 L7.7,21 C6.6,21 5.9,20.2 5.9,19.3 L5.9,12 C6,11.9 15.9,11.9 15.9,11.9 Z" id="Path" fill="#1A1818"></path>
                <path d="M36,15.9 C36.1,17.1 35.4,19 34.3,19.9 C33.2,20.7 32,21.6 30,21.6 C27.8,21.6 26,20.4 25.3,20.2 C24.9,20 24.4,20 24,20.3 C23.7,20.5 23.4,20.9 23.4,21.6 L23,21.6 L23,14.4 L23.3,14.4 C23.5,16.6 24.6,17.8 25.3,18.6 C26.4,19.8 28.4,20.5 30.2,20.1 C31.7,19.9 33.4,18.2 33.2,16.2 C33.1,15.6 33,14.4 31.5,13.5 C30.6,12.9 29.2,12 27.9,11.2 C26.2,10.1 24.8,9 24.4,8.6 C23.9,8 23.2,7.1 23.2,5.6 C23.2,4.4 23.6,3.1 24.7,2.1 C25.8,1 27,0.4 28.9,0.4 C30.8,0.4 32.3,1.5 32.8,1.6 C33.3,1.8 33.9,1.8 34.2,1.6 C34.5,1.4 34.7,1.2 34.8,0.4 L35,0.4 L35,7.2 L34.7,7.2 C34.4,5 33.5,3.3 32.8,2.8 C32.1,2.2 30.8,1.3 28.9,1.7 C27.1,2 26.2,2.9 25.9,4.3 C25.7,5.5 26.4,6.1 26.7,6.5 C27.3,7.3 32.1,9.9 34.1,11.7 C34.9,13 35.9,14.1 36,15.9" id="Path" fill="#1A1818"></path>
                <path d="M42.6,20.1 C44.1,20.5 46.7,20.9 48.6,19.5 C50.8,17.8 51.3,13.9 48.2,11.9 C46.9,11.1 43.7,11.1 42.6,11.4 L42.6,20.1 Z M42.6,10.2 C43.7,10.4 46.6,10.5 47.8,9.8 C49.6,8.6 50.1,6.7 49.8,5.2 C49.6,4.3 49.2,3.3 48.1,2.7 C46.4,1.5 43.9,1.8 42.6,2.2 C42.6,2.1 42.6,10.2 42.6,10.2 Z M49.2,10.8 C52.9,12.1 53.9,14.7 53.2,17.3 C52.5,20.4 48.9,21.1 47.7,21.3 C47.2,21.4 45.9,21.4 44.5,21.4 C42.2,21.4 39.3,21.4 36.9,21.4 L36.9,21.1 L38.1,21.1 C38.9,21.1 39.8,20.5 39.8,19.4 L39.8,2.8 C39.8,1.9 39,1.1 38.1,1.1 L36.9,1.1 L36.9,0.9 C38.9,0.9 42.1,0.9 44.2,0.9 C45.9,0.9 46.9,1.1 47.6,1.1 C48.7,1.3 51.6,2.3 52.5,5.1 C53,7.3 51.8,10 49.2,10.8 L49.2,10.8 Z" id="Shape" fill="#1A1818"></path>
                <path d="M72.5,1.1 L72.7,8.1 L72.3,8.1 C72.1,6.4 71.5,5 70.6,4.3 C70.4,4.1 70,3.7 69.2,3.1 C68.1,2.5 66.6,1.7 64.7,2 C61.7,2.5 60.4,4.3 59.5,6.3 C58.6,8.5 58,12.5 59.6,15.7 C60.9,18.3 63.3,19.5 65.2,19.7 C66.9,19.9 70.4,19.9 73.1,16.2 L73.5,16.4 C71.5,19.5 68.6,21.3 65.5,21.3 C61.4,21.3 58.9,19 57.7,17.7 C56.3,16.4 55.4,13.7 55.4,11.5 C55.4,9.5 55.8,7.2 56.6,5.8 C58,3.5 60.5,1.2 64.1,0.8 C66.7,0.6 68.4,1 69.9,2 C70.7,2.4 71.1,2.5 71.4,2.3 C71.8,2.1 72,1.8 72,1.1 C72.1,1.1 72.5,1.1 72.5,1.1 Z" id="Path" fill="#1A1818"></path>
                <path d="M110.3,21.4 L89.8,21.4 L89.8,0.8 L110.3,0.8 C110.3,0.8 110.3,21.4 110.3,21.4 Z" id="Path" fill="#FFFFFF"></path>
                <path d="M79.4,11.1 L89.6,21.3 L89.6,0.8 C89.8,0.8 79.4,11.1 79.4,11.1 Z" id="Path" fill="#E71D1C"></path>
                <polygon id="Path" fill="#E71D1C" points="89.8 21.4 110.3 21.4 100 11.2"></polygon>
                <path d="M100,11.1 L110.2,0.9 L89.7,0.9 C89.8,0.8 100,11.1 100,11.1 Z" id="Path" fill="#E71D1C"></path>
                <polygon id="Path" fill="#E71D1C" points="110.3 0.8 110.3 21.3 120.5 11"></polygon>
            </g>
        </g>
    </g>
</svg>