<?xml version="1.0" encoding="UTF-8"?>
<svg width="85px" height="80px" viewBox="0 0 85 80" version="1.1" xmlns="http://www.w3.org/2000/svg" xmlns:xlink="http://www.w3.org/1999/xlink">
    <!-- Generator: Sketch 58 (84663) - https://sketch.com -->
    <title>insights + analytics</title>
    <desc>Created with Sketch.</desc>
    <g id="Master" stroke="none" stroke-width="1" fill="none" fill-rule="evenodd">
        <g id="1326-Litmus-Home-v6b" transform="translate(-194.000000, -2489.000000)">
            <g id="Group-6" transform="translate(0.000000, 1643.000000)">
                <g id="insights-+-analytics" transform="translate(195.000000, 847.000000)">
                    <path d="M83,6.36234205 C83,2.86421071 80.1674894,0 76.705532,0 L6.29446804,0 C2.83136617,0 0,2.86421071 0,6.36234205 L0,71.6376579 C0,75.1369461 2.83136617,78 6.29446804,78 L76.705532,78 C80.1674894,78 83,75.1369461 83,71.6376579 L83,6.36234205 Z" id="Fill-1" fill="#FFFFFF"></path>
                    <path d="M83,6.36234205 C83,2.86421071 80.1674894,0 76.705532,0 L6.29446804,0 C2.83136617,0 0,2.86421071 0,6.36234205 L0,71.6376579 C0,75.1369461 2.83136617,78 6.29446804,78 L76.705532,78 C80.1674894,78 83,75.1369461 83,71.6376579 L83,6.36234205 Z" id="Stroke-3" stroke="#235BA8" stroke-width="2"></path>
                    <path d="M9,46.5 L29,46.5" id="Stroke-5" stroke="#235BA8" stroke-width="2" stroke-linecap="round"></path>
                    <path d="M8,53.5 L31,53.5" id="Stroke-7" stroke="#235BA8" stroke-width="2" stroke-linecap="round"></path>
                    <path d="M9,62.5 L28,62.5" id="Stroke-9" stroke="#235BA8" stroke-width="2" stroke-linecap="round"></path>
                    <path d="M8,69.5 L30,69.5" id="Stroke-11" stroke="#235BA8" stroke-width="2" stroke-linecap="round"></path>
                    <path d="M45,62.5 L72,62.5" id="Stroke-13" stroke="#235BA8" stroke-width="2" stroke-linecap="round"></path>
                    <path d="M45,69.5 L67,69.5" id="Stroke-15" stroke="#235BA8" stroke-width="2" stroke-linecap="round"></path>
                    <path d="M8,21.5 L30,21.5" id="Stroke-17" stroke="#235BA8" stroke-width="2" stroke-linecap="round"></path>
                    <path d="M10,10.5 L51,10.5" id="Stroke-19" stroke="#29B17B" stroke-width="4" stroke-linecap="round"></path>
                    <path d="M60,10.5 L74,10.5" id="Stroke-21" stroke="#29B17B" stroke-width="4" stroke-linecap="round"></path>
                    <path d="M8,29.5 L31,29.5" id="Stroke-23" stroke="#235BA8" stroke-width="2" stroke-linecap="round"></path>
                    <path d="M9,37.5 L28,37.5" id="Stroke-25" stroke="#235BA8" stroke-width="2" stroke-linecap="round"></path>
                    <path d="M66.3946149,21.2398328 C59.2432811,15.7287847 49.2386146,17.4179628 44.0495096,25.0186665 C38.8604046,32.6193701 40.4547154,43.2481616 47.6071744,48.7604051 C54.7596333,54.2726487 64.7620495,52.5798842 69.9500294,44.980376 C75.1391344,37.3796724 73.5459487,26.7520764 66.3946149,21.2398328" id="Fill-27" fill="#29B17B"></path>
                    <path d="M66.6051168,22 L57,36 L73,33.359711 C72.4549499,28.9658938 70.2669633,24.8084677 66.6051168,22" id="Fill-29" fill="#00795B"></path>
                </g>
            </g>
        </g>
    </g>
</svg>