<?xml version="1.0" encoding="UTF-8"?>
<svg width="103px" height="25px" viewBox="0 0 103 25" version="1.1" xmlns="http://www.w3.org/2000/svg" xmlns:xlink="http://www.w3.org/1999/xlink">
    <!-- Generator: Sketch 59.1 (86144) - https://sketch.com -->
    <title>webmd-logo</title>
    <desc>Created with Sketch.</desc>
    <defs>
        <polygon id="path-1" points="0 0.40569984 52.1092915 0.40569984 52.1092915 24.26112 0 24.26112"></polygon>
        <polygon id="path-3" points="0.188742528 0.435756672 3.05240832 0.435756672 3.05240832 3.26217715 0.188742528 3.26217715"></polygon>
    </defs>
    <g id="Page-1" stroke="none" stroke-width="1" fill="none" fill-rule="evenodd">
        <g id="webmd-logo">
            <path d="M78.881078,22.9545239 C78.1828969,22.7105648 77.6505001,21.8870346 77.6361232,21.4647114 C77.6226448,21.0410404 77.1940316,2.3146007 77.1940316,2.3146007 C77.1742633,1.34460518 77.2196406,0.640134144 76.9599568,0.543988224 C76.6463593,0.425378304 75.3223312,0.453233664 74.9727913,0.453233664 C74.1281449,0.453233664 73.5022979,0.430320384 73.3490934,0.609133824 C73.1869033,0.797831424 72.8804944,1.4699543 72.5358966,2.3774999 L70.8223427,6.19278566 C70.3793526,7.05630182 69.6236636,8.5258967 69.1788764,9.38671718 L66.5797916,14.4249431 C66.1345552,15.2871114 65.3927939,15.2951984 64.9268905,14.4438128 L62.2114422,9.4626455 C61.747336,8.61170918 60.9876035,7.21759334 60.5239465,6.36530918 L58.6189993,2.34335462 C58.2344156,1.45288166 58.0493123,0.761889024 57.8606147,0.595655424 C57.7002217,0.451885824 57.0218089,0.451885824 56.0522627,0.457726464 L53.7735145,0.457726464 C52.6422275,0.457726464 52.1318454,0.469857024 52.2055273,0.948340224 C52.2441654,1.20982118 52.6386332,1.2857495 52.8129539,1.33337318 C53.51428,1.53150566 53.7708188,2.38783334 53.7708188,2.81150438 C53.7708188,3.23382758 53.7577897,20.2938877 53.6755715,21.0410404 C53.6625424,21.1668388 53.6387305,21.2953328 53.6126723,21.428769 C53.5996432,21.4350589 53.5884112,21.4467402 53.5843676,21.4647114 C53.4504822,22.1920957 53.0434345,22.7581885 52.3416592,22.9545239 C52.1673385,23.0034954 51.7728707,23.0789744 51.7337833,23.341354 C51.661,23.8193879 52.185759,23.835562 53.317046,23.835562 L54.0817206,23.832417 C54.143272,23.8387069 54.2088668,23.843649 54.2794038,23.843649 C54.2794038,23.843649 54.286143,23.8387069 54.2964764,23.832417 L55.1914422,23.832417 L57.0653891,23.835562 C58.1971254,23.835562 58.7232323,23.8193879 58.6499996,23.341354 C58.610463,23.0789744 58.2168937,23.0034954 58.0425731,22.9545239 C57.3416963,22.7581885 57.0550556,22.3151984 56.7980675,21.4647114 C56.7971689,21.4611172 56.7949225,21.4566244 56.7949225,21.4525808 C56.6709212,20.9031114 56.6134134,20.1600023 56.6134134,20.1600023 C56.5761232,19.1891082 56.5532099,17.6031498 56.5639926,16.6336036 L56.5657897,16.3343831 C56.5761232,15.3639383 56.6026307,13.7779799 56.6259932,12.8084336 L56.7154,8.98595942 C56.737864,8.01686246 57.1318825,7.9216151 57.5905974,8.7752471 L60.1128553,13.4589911 C60.572918,14.3135216 62.9891459,18.8858442 63.420904,19.7511575 C63.788415,20.4866288 63.8647926,20.7633853 64.998326,20.7782116 C66.2679913,20.7930378 66.2679913,20.4408023 66.7896054,19.3220951 C67.1719427,18.4994634 72.5794768,7.86006374 72.5794768,7.86006374 C73.0197712,6.99564902 73.4016592,7.08191078 73.4268188,8.05145702 C73.4268188,8.05145702 73.4955587,21.0262141 73.4048041,21.6089303 C73.3899779,21.6974384 73.3778473,21.7594391 73.3706588,21.8034685 C73.1846569,22.3646192 72.804566,22.7896381 72.2178064,22.9545239 C72.0421379,23.0034954 71.6503657,23.0789744 71.6085827,23.341354 C71.538495,23.8193879 72.0605584,23.835562 73.192744,23.835562 L75.548319,23.8315184 L76.6027792,23.832417 L77.1517993,23.8378084 C77.1661763,23.8378084 77.1765097,23.835562 77.1895388,23.832417 L77.9034448,23.835562 C79.0392246,23.835562 79.5608387,23.8193879 79.4889539,23.341354 C79.4485187,23.0789744 79.052703,23.0151767 78.881078,22.9545239 M88.8753116,21.7863959 L88.6538166,21.7869822 C87.3055273,21.7877437 85.9127593,21.7908887 85.1907664,21.0720407 C84.8174147,20.6968919 84.635007,20.1447268 84.635007,19.3827479 L84.635007,8.64360806 C84.635007,6.4322519 84.5810934,5.38947302 84.6552246,2.91034598 C86.3854019,2.69514086 87.2579036,2.63673446 88.6708892,2.63673446 C91.2214518,2.63673446 93.8879286,2.9795351 96.1181545,5.45551718 C97.6407644,7.17266534 98.3820764,9.31707878 98.3820764,12.0069181 C98.3820764,17.946849 94.6490089,21.7863959 88.8753116,21.7863959 M98.6520937,2.71850342 C95.6832515,0.376856064 90.0470339,0.496364544 90.0470339,0.496364544 C89.0653571,0.499060224 86.8522038,0.488726784 85.8835561,0.495465984 L82.8495683,0.493219584 C82.837887,0.492321024 82.8284521,0.488726784 82.8181187,0.488726784 L80.3183248,0.485132544 C79.1852406,0.485132544 78.7961641,0.564205824 78.8675996,1.04268902 C78.9071363,1.30416998 79.3020534,1.37964902 79.4772726,1.42862054 C80.1781494,1.6249559 80.6907779,2.00190182 80.7208796,2.6987351 C80.7572713,3.5029463 80.8462288,6.02969702 80.8462288,6.90669158 L80.8462288,14.0843888 C80.8462288,15.0534858 80.841736,16.6412413 80.838591,17.6103383 L80.8224169,22.0716887 C80.8197212,23.0412349 81.6095555,23.8360112 82.5786524,23.8378084 L84.8308931,23.8414026 C85.8013379,23.843649 87.3881948,23.844548 88.3586396,23.844548 C88.3586396,23.844548 92.5122332,23.8490404 95.5313948,22.4544752 C100.053847,20.4026135 102.646193,16.4467031 102.646193,11.600769 C102.646193,7.98496358 101.153685,4.66523366 98.6520937,2.71850342" id="Fill-1" fill="#231F20" fill-rule="nonzero"></path>
            <g id="Group-5" transform="translate(0.000000, 0.043760)">
                <g id="Fill-3-Clipped">
                    <mask id="mask-2" fill="white">
                        <use xlink:href="#path-1"></use>
                    </mask>
                    <g id="path-1"></g>
                    <path d="M47.8941466,17.4362423 C47.1362112,18.9251562 46.1477952,20.344881 45.0502042,21.4325879 C43.8780326,22.5822954 42.5674829,23.3330423 41.2560346,23.3330423 C39.7208448,23.3330423 39.2185498,21.8656938 39.2185498,20.4958391 C39.2185498,16.7555831 43.2930701,9.80836646 47.4345331,9.80836646 C48.9701722,9.80836646 49.4369741,10.8772036 49.4369741,12.1477674 C49.4369741,13.5953476 48.8466202,15.5560055 47.8941466,17.4362423 M32.6774822,9.50959526 C33.546839,9.50959526 34.0477862,10.0779345 34.0477862,10.9445956 C34.0477862,14.58601 30.0069619,16.1872439 26.9320896,16.3889706 C27.4689792,14.1857015 30.1071514,9.50959526 32.6774822,9.50959526 M48.3335424,8.44075814 C45.3305549,8.44075814 42.5912947,11.1786705 40.7883341,13.2485034 C40.7514931,13.212561 40.9491763,12.4222775 41.224585,11.494065 L44.0249472,2.10770726 C44.302153,1.17769766 43.7356109,0.417515904 42.7656154,0.416168064 L40.4006054,0.411675264 C39.267072,0.411675264 38.7445594,0.427849344 38.8155456,0.906332544 C38.8555315,1.1678135 39.2504486,1.24329254 39.42432,1.29226406 C40.5470707,1.60676006 40.918176,2.86654118 40.6212019,4.22471462 C40.6319846,4.11374246 37.821289,15.324177 37.821289,15.324177 C37.5894605,16.2658679 36.7506547,17.5889975 36.0529229,18.2633668 C36.0529229,18.2633668 32.6590618,22.3985399 29.236896,22.3985399 C27.667561,22.3985399 26.499433,21.4977335 26.499433,19.8286583 C26.499433,18.9593015 26.5627814,18.2063082 26.7622618,17.3360528 C30.3362842,17.0022378 36.7201037,15.3533802 36.7201037,10.812058 C36.7201037,8.97540134 34.9503898,8.44075814 33.4462003,8.44075814 C28.6038605,8.44075814 23.8280141,14.3505872 23.8280141,19.6952221 C23.8280141,21.931738 24.8618074,24.2028484 27.9362304,24.2028484 C33.7108262,24.2028484 36.8485978,18.5643844 37.0251648,18.3774839 C37.0251648,18.3774839 36.7466112,19.7940637 36.7466112,20.6310724 C36.7466112,23.0684164 38.5181222,24.2028484 40.7227392,24.2028484 C42.3329587,24.2028484 44.021353,23.6273207 45.6122534,22.6743978 C46.8410342,21.9236509 47.994336,20.9599453 48.9742157,19.8273104 C50.8463654,17.7116509 52.1092915,15.1094212 52.1092915,12.6801642 C52.1092915,10.1444279 51.0072077,8.44075814 48.3335424,8.44075814 M28.0611302,2.79375782 C28.2174797,2.3786231 28.5728602,1.58070182 29.068416,1.3250615 C29.3249549,1.19162534 29.8250035,1.19791526 29.9085696,0.847926144 C29.9934835,0.498386304 29.6839296,0.405385344 28.4520038,0.405385344 L24.755328,0.405385344 C23.6244902,0.405385344 23.1001805,0.421110144 23.1720653,0.899593344 C23.2102541,1.16017574 23.606519,1.23610406 23.7803904,1.28552486 C24.8501261,1.5856439 25.5707712,2.13241766 25.2342605,3.25337126 C24.8990976,4.3734263 20.2292813,18.120945 20.2292813,18.120945 C20.0477722,18.6147037 19.5944486,18.7562269 19.450679,18.0207556 L16.9926682,6.45988262 C16.7909414,5.51055398 16.5600115,4.29570086 16.4800397,3.75926054 C16.4800397,3.75926054 16.3066176,3.0008759 15.4381594,3.0008759 C14.755703,3.0008759 14.4852365,3.48654758 14.418743,3.62582438 C14.1055949,4.27503398 13.4909798,5.51414822 13.0520333,6.3794615 L6.89240448,18.2054096 C6.6403584,18.6439069 6.31822464,18.5136157 6.27958656,17.9866103 L5.51536128,5.99802278 C5.51086848,5.05318694 5.42460672,3.21608102 5.42775168,2.8997879 C5.42999808,2.1113015 5.95206144,1.5047735 6.6897792,1.29855398 C6.8649984,1.25003174 7.28327808,1.15074086 7.32281472,0.889709184 C7.39469952,0.412124544 6.84747648,0.418863744 5.71394304,0.418863744 L5.54995584,0.418863744 C5.3823744,0.417515904 1.6219008,0.418863744 1.6219008,0.418863744 C1.40984064,0.413921664 1.22294016,0.413921664 1.06119936,0.422907264 C0.29787264,0.438182784 -0.05256576,0.516806784 0.00628992,0.912173184 C0.04627584,1.17320486 0.44074368,1.25003174 0.61506432,1.29855398 C1.12724352,1.4418743 1.47902976,1.78512422 1.68614784,2.24294054 C1.78543872,2.50801574 1.84294656,2.73624998 1.84294656,2.73624998 C1.84923648,2.76410534 1.8555264,2.79600422 1.86136704,2.8256567 C1.86630912,2.8503671 1.87259904,2.87372966 1.87664256,2.8997879 C1.88158464,2.93213606 1.88967168,2.96313638 1.89775872,2.99233958 C2.09858688,3.94616102 2.29896576,5.32859558 2.35737216,6.21277862 L3.3493824,20.8624516 C3.4122816,21.8302007 3.38217984,23.23465 3.67241472,23.8429751 C3.96444672,24.4517495 5.32576512,24.4167056 5.86490112,23.6003639 C6.01765632,23.3703325 13.7007936,8.9291255 13.7007936,8.9291255 C14.1482765,8.0687543 14.6725862,8.14333478 14.8657766,9.09356198 L17.2864973,20.9999312 C17.4778906,21.9501584 17.6814144,23.0059664 17.9172864,23.6169872 C18.248855,24.4791556 19.8927706,24.3268496 20.3294707,23.4875946 C20.714953,22.7525725 21.119305,21.7497796 21.4486272,20.8377412 C21.4486272,20.8377412 27.7749389,3.55214246 28.0611302,2.79375782" id="Fill-3" fill="#0081C5" fill-rule="nonzero" mask="url(#mask-2)"></path>
                </g>
            </g>
            <g id="Group-8" transform="translate(99.740160, 0.043760)">
                <g id="Fill-6-Clipped">
                    <mask id="mask-4" fill="white">
                        <use xlink:href="#path-3"></use>
                    </mask>
                    <g id="path-3"></g>
                    <path d="M1.32587021,1.74855283 L1.32587021,1.24311283 L1.66013453,1.24311283 C1.83355661,1.24311283 2.01776141,1.28040307 2.01776141,1.48257907 C2.01776141,1.73282803 1.82906381,1.74855283 1.61969933,1.74855283 L1.32587021,1.74855283 Z M1.32587021,1.95791731 L1.61026445,1.95791731 L2.04067469,2.66463475 L2.31653261,2.66463475 L1.85377421,1.94713459 C2.09099405,1.91613427 2.27430029,1.79033587 2.27430029,1.49785459 C2.27430029,1.17617011 2.08380557,1.03419763 1.69787405,1.03419763 L1.07786765,1.03419763 L1.07786765,2.66463475 L1.32587021,2.66463475 L1.32587021,1.95791731 Z M1.62464141,3.26217715 C2.39470733,3.26217715 3.05245325,2.66463475 3.05245325,1.84559731 C3.05245325,1.03419763 2.39470733,0.435756672 1.62464141,0.435756672 C0.845140608,0.435756672 0.188742528,1.03419763 0.188742528,1.84559731 C0.188742528,2.66463475 0.845140608,3.26217715 1.62464141,3.26217715 L1.62464141,3.26217715 Z M0.472687488,1.84559731 C0.472687488,1.17617011 0.978576768,0.671179392 1.62464141,0.671179392 C2.26396685,0.671179392 2.76805901,1.17617011 2.76805901,1.84559731 C2.76805901,2.52580723 2.26396685,3.02765299 1.62464141,3.02765299 C0.978576768,3.02765299 0.472687488,2.52580723 0.472687488,1.84559731 L0.472687488,1.84559731 Z" id="Fill-6" fill="#231F20" fill-rule="nonzero" mask="url(#mask-4)"></path>
                </g>
            </g>
        </g>
    </g>
</svg>