<?xml version="1.0" encoding="UTF-8"?>
<svg width="84px" height="80px" viewBox="0 0 84 80" version="1.1" xmlns="http://www.w3.org/2000/svg" xmlns:xlink="http://www.w3.org/1999/xlink">
    <!-- Generator: Sketch 58 (84663) - https://sketch.com -->
    <title>campaign-development</title>
    <desc>Created with Sketch.</desc>
    <defs>
        <polygon id="path-1" points="0.435897436 0.248666667 49.2012821 0.248666667 49.2012821 2.91533333 0.435897436 2.91533333"></polygon>
    </defs>
    <g id="Master" stroke="none" stroke-width="1" fill="none" fill-rule="evenodd">
        <g id="1326-Litmus-Home-v6b" transform="translate(-193.000000, -1826.000000)">
            <g id="Group-6" transform="translate(0.000000, 1643.000000)">
                <g id="campaign-development" transform="translate(193.000000, 183.000000)">
                    <path d="M6.52056563,32.5817051 C5.45173972,32.5817051 4.5817051,33.4504489 4.5817051,34.5192748 L4.5817051,47.4807252 C4.5817051,48.5495511 5.45173972,49.4182949 6.52056563,49.4182949 L19.4807252,49.4182949 C20.5495511,49.4182949 21.4182949,48.5495511 21.4182949,47.4807252 L21.4182949,34.5192748 C21.4182949,33.4504489 20.5495511,32.5817051 19.4807252,32.5817051 L6.52056563,32.5817051 Z M19.4807252,52 L6.52056563,52 C4.02792936,52 2,49.9720706 2,47.4807252 L2,34.5192748 C2,32.0279294 4.02792936,30 6.52056563,30 L19.4807252,30 C21.9733615,30 24,32.0279294 24,34.5192748 L24,47.4807252 C24,49.9720706 21.9733615,52 19.4807252,52 L19.4807252,52 Z" id="Fill-1" fill="#235BA8"></path>
                    <path d="M64.7037712,49 L35.2962288,49 C34.5794143,49 34,48.328 34,47.5 C34,46.672 34.5794143,46 35.2962288,46 L64.7037712,46 C65.4205857,46 66,46.672 66,47.5 C66,48.328 65.4205857,49 64.7037712,49" id="Fill-3" fill="#235BA8"></path>
                    <path d="M69.7278229,37 L35.2721771,37 C34.5686632,37 34,36.328 34,35.5 C34,34.672 34.5686632,34 35.2721771,34 L69.7278229,34 C70.4313368,34 71,34.672 71,35.5 C71,36.328 70.4313368,37 69.7278229,37" id="Fill-5" fill="#235BA8"></path>
                    <path d="M6.52056563,60.5817051 C5.45173972,60.5817051 4.5817051,61.4504489 4.5817051,62.5192748 L4.5817051,75.4807252 C4.5817051,76.5495511 5.45173972,77.4182949 6.52056563,77.4182949 L19.4807252,77.4182949 C20.5495511,77.4182949 21.4182949,76.5495511 21.4182949,75.4807252 L21.4182949,62.5192748 C21.4182949,61.4504489 20.5495511,60.5817051 19.4807252,60.5817051 L6.52056563,60.5817051 Z M19.4807252,80 L6.52056563,80 C4.02792936,80 2,77.9720706 2,75.4807252 L2,62.5192748 C2,60.0279294 4.02792936,58 6.52056563,58 L19.4807252,58 C21.9733615,58 24,60.0279294 24,62.5192748 L24,75.4807252 C24,77.9720706 21.9733615,80 19.4807252,80 L19.4807252,80 Z" id="Fill-7" fill="#235BA8"></path>
                    <path d="M75.7045071,76 L35.2954929,76 C34.5790853,76 34,75.328 34,74.5 C34,73.672 34.5790853,73 35.2954929,73 L75.7045071,73 C76.4209147,73 77,73.672 77,74.5 C77,75.328 76.4209147,76 75.7045071,76" id="Fill-9" fill="#235BA8"></path>
                    <path d="M77.701973,65 L35.298027,65 C34.5802181,65 34,64.328 34,63.5 C34,62.672 34.5802181,62 35.298027,62 L77.701973,62 C78.4197819,62 79,62.672 79,63.5 C79,64.328 78.4197819,65 77.701973,65" id="Fill-11" fill="#235BA8"></path>
                    <g id="Group-15" transform="translate(34.000000, 18.000000)">
                        <mask id="mask-2" fill="white">
                            <use xlink:href="#path-1"></use>
                        </mask>
                        <g id="Clip-14"></g>
                        <path d="M47.9192308,2.91533333 L1.71794872,2.91533333 C1.00897436,2.91533333 0.435897436,2.318 0.435897436,1.582 C0.435897436,0.846 1.00897436,0.248666667 1.71794872,0.248666667 L47.9192308,0.248666667 C48.6282051,0.248666667 49.2012821,0.846 49.2012821,1.582 C49.2012821,2.318 48.6282051,2.91533333 47.9192308,2.91533333" id="Fill-13" fill="#235BA8" mask="url(#mask-2)"></path>
                    </g>
                    <path d="M60.7015396,10 L35.2984604,10 C34.5804118,10 34,9.328 34,8.5 C34,7.672 34.5804118,7 35.2984604,7 L60.7015396,7 C61.4195882,7 62,7.672 62,8.5 C62,9.328 61.4195882,10 60.7015396,10" id="Fill-16" fill="#235BA8"></path>
                    <path d="M12.2887362,21.6964365 L3.93861513,14.4951317 L6.45341768,11.5768299 L11.6783473,16.082143 L19.2613058,5.95482627 L22.3453764,8.26402412 L12.2887362,21.6964365 Z M13.0006425,0 C5.82118322,0 0,5.81989819 0,13.0006425 C0,20.1801018 5.82118322,26 13.0006425,26 C20.1801018,26 26,20.1801018 26,13.0006425 C26,5.81989819 20.1801018,0 13.0006425,0 L13.0006425,0 Z" id="Fill-18" fill="#29B17B"></path>
                </g>
            </g>
        </g>
    </g>
</svg>