<?xml version="1.0" encoding="UTF-8"?>
<svg width="125px" height="36px" viewBox="0 0 125 36" version="1.1" xmlns="http://www.w3.org/2000/svg" xmlns:xlink="http://www.w3.org/1999/xlink">
    <!-- Generator: Sketch 58 (84663) - https://sketch.com -->
    <title>expedia-logo</title>
    <desc>Created with Sketch.</desc>
    <defs>
        <polygon id="path-1" points="0.600314787 0.47556972 124.093642 0.47556972 124.093642 35.4992653 0.600314787 35.4992653"></polygon>
    </defs>
    <g id="Master" stroke="none" stroke-width="1" fill="none" fill-rule="evenodd">
        <g id="1326-Litmus-Home-v6b" transform="translate(-198.000000, -1363.000000)">
            <g id="expedia-logo" transform="translate(198.000000, 1362.466063)">
                <g id="g10" transform="translate(62.500000, 18.533937) scale(-1, 1) rotate(-180.000000) translate(-62.500000, -18.533937) translate(0.000000, 0.533937)">
                    <g id="g12">
                        <g id="g14-Clipped">
                            <g>
                                <mask id="mask-2" fill="white">
                                    <use xlink:href="#path-1"></use>
                                </mask>
                                <g id="path-1"></g>
                                <g id="g14" mask="url(#mask-2)">
                                    <g transform="translate(-1.237624, -1.241379)" id="Group">
                                        <g transform="translate(0.760062, 0.000000)">
                                            <g id="g20" transform="translate(46.813973, 9.334491)" fill="#072F54" fill-rule="nonzero">
                                                <path d="M13.7214808,0 L9.8914725,0 C9.87432066,0 9.86402954,0.00344077961 9.85373843,0.0154835083 L6.55372229,4.05839954 L3.25027578,0.0154835083 C3.24341504,0.00344077961 3.23140874,0 3.21425689,0 L0.14750592,0 C0.128638882,0 0.114917402,0.00860194903 0.101195921,0.0292466267 C0.096050366,0.0412893554 0.096050366,0.0636544228 0.108056662,0.0774175412 L4.96889125,6.06609446 L0.16465777,11.9979985 C0.15093629,12.0186432 0.15093629,12.0358471 0.156081844,12.0547714 C0.16465777,12.0650937 0.183524806,12.0822976 0.198961473,12.0822976 L4.030685,12.0822976 C4.0426913,12.0822976 4.05641277,12.075416 4.06670389,12.0582121 L6.96193635,8.45915667 L9.90862436,12.0599325 C9.91720028,12.075416 9.93092176,12.0822976 9.94464324,12.0822976 L13.0679953,12.0822976 C13.0868624,12.0822976 13.1057293,12.0650937 13.1125901,12.0547714 C13.1211661,12.0358471 13.1177356,12.0152024 13.1057293,11.9979985 L8.54505219,6.50479386 L13.7540693,0.0774175412 C13.7677908,0.0636544228 13.7729364,0.0412893554 13.7626453,0.0292466267 C13.7540693,0.00860194903 13.7369175,0 13.7214808,0" id="path22"></path>
                                            </g>
                                            <g id="g24" transform="translate(74.404269, 8.485252)" fill="#072F54" fill-rule="nonzero">
                                                <path d="M6.86074042,10.8013493 C5.16442235,10.8013493 4.0066724,9.76911545 3.67564168,7.97474887 L9.44552438,7.97474887 L9.44552438,8.09001499 C9.44552438,9.52654048 8.39068553,10.8013493 6.86074042,10.8013493 M12.4213705,6.13393179 C12.4127946,6.12016867 12.3956427,6.11156671 12.3802061,6.11156671 L3.61389501,6.11156671 C3.79570464,4.06430285 5.12154272,2.89787856 7.26723929,2.89787856 C8.58793182,2.89787856 9.99095324,3.35034108 11.9737072,4.40838081 C12.0097261,4.42902549 12.045745,4.39805846 12.045745,4.36020989 L12.0423146,1.65575712 C12.0388843,1.63339205 12.0285931,1.61962894 12.0131565,1.61446777 C10.1693325,0.83513119 8.31693257,0.303530735 6.86074042,0.303530735 C3.08561801,0.303530735 0.349897761,3.06303598 0.349897761,6.86337706 C0.349897761,10.6637181 3.08561801,13.4232234 6.86074042,13.4232234 C10.3048321,13.4232234 12.5174209,11.095536 12.5174209,7.89389055 C12.5174209,7.37605322 12.4282313,6.17178036 12.4213705,6.13393179" id="path26"></path>
                                            </g>
                                            <g id="g28" transform="translate(102.440974, 8.427502)" fill="#072F54" fill-rule="nonzero">
                                                <path d="M2.19274645,15.4835083 C1.11732538,15.4835083 0.242580978,16.3471439 0.242580978,17.4103448 C0.242580978,18.5045127 1.11732538,19.3905135 2.19274645,19.3905135 C3.26816751,19.3905135 4.1446271,18.5045127 4.1446271,17.4103448 C4.1446271,16.3471439 3.26816751,15.4835083 2.19274645,15.4835083 L2.19274645,15.4835083 Z M0.618206522,0.906645427 C0.587333193,0.906645427 0.568466151,0.925569715 0.568466151,0.956536731 L0.568466151,12.9390517 C0.568466151,12.9631372 0.585618007,12.9820614 0.606200223,12.9872226 L3.77243193,12.9872226 C3.7981597,12.9820614 3.81188119,12.9631372 3.81188119,12.9390517 L3.81188119,0.956536731 C3.81188119,0.925569715 3.79129897,0.906645427 3.76557119,0.906645427 L0.618206522,0.906645427 Z" id="path30"></path>
                                            </g>
                                            <g id="g32" transform="translate(61.180707, 0.816497)" fill="#072F54" fill-rule="nonzero">
                                                <path d="M5.14555532,10.3223388 C4.57439868,10.3223388 3.98952056,10.4031972 3.317168,10.5838381 L3.32402874,18.2705398 C4.1112987,18.5217166 4.79565755,18.6404235 5.47315567,18.6404235 C7.66859261,18.6404235 9.14193661,17.0163756 9.14193661,14.604389 C9.14193661,12.0031597 7.57254224,10.3223388 5.14555532,10.3223388 M6.00657824,21.0902586 C5.11296679,21.0902586 4.21077943,20.9268216 3.26399725,20.5999476 L0.113202217,20.5999476 C0.0874744403,20.5999476 0.0686074042,20.5775825 0.0686074042,20.5500563 L0.0686074042,0.899763869 C1.02053514,1.03051349 2.18686101,1.37115067 3.31888318,2.17973388 L3.317168,8.15636807 C4.09414684,8.04626312 4.73562608,7.97228636 5.3548079,7.97228636 C9.67021363,7.97228636 12.462535,10.5666342 12.462535,14.5837444 C12.462535,18.4133321 9.80571324,21.0902586 6.00657824,21.0902586" id="path34"></path>
                                            </g>
                                            <g id="g36" transform="translate(87.964186, 8.214119)" fill="#072F54" fill-rule="nonzero">
                                                <path d="M9.32957217,3.91979011 C8.34334073,3.40023239 7.46173559,3.15421664 6.63330118,3.15421664 C4.67970535,3.15421664 3.50823393,4.53913044 3.50823393,6.85821589 C3.50823393,9.54202398 5.00387534,11.2778973 7.31594486,11.2778973 C7.95399372,11.2778973 8.57489072,11.1213418 9.32957217,10.7789843 L9.32957217,3.91979011 Z M9.32957217,19.5460908 L9.32957217,13.2735494 C8.4050874,13.5384895 7.59037447,13.6606372 6.76880081,13.6606372 C3.01426061,13.6606372 0.179059634,10.821994 0.179059634,7.05089954 C0.179059634,3.29700899 2.67979952,0.575352323 6.12046083,0.575352323 C7.31251448,0.575352323 8.42738481,0.874700156 9.73950141,1.55253373 L9.73778623,0.470408549 C10.6039547,0.635565972 11.598762,0.98308471 12.5798479,1.67984258 L12.5798479,20.8295016 C11.6159139,20.7004722 10.4736006,20.377039 9.32957217,19.5460908 L9.32957217,19.5460908 Z" id="path38"></path>
                                            </g>
                                            <g id="g40" transform="translate(107.893093, 8.237860)" fill="#072F54" fill-rule="nonzero">
                                                <path d="M9.32957217,3.91979011 C8.37592925,3.36754498 7.55778596,3.10260494 6.82711711,3.10260494 C4.73459128,3.10260494 3.48079096,4.48235757 3.48079096,6.81004498 C3.48079096,9.45428411 4.95756534,11.228006 7.15300227,11.228006 C7.74131076,11.228006 8.45482776,11.0026349 9.32957217,10.5381297 L9.32957217,3.91979011 Z M12.5832784,13.3234407 C12.5832784,13.3974175 12.5198165,13.4559108 12.4477787,13.4559108 L9.88872252,13.4524701 C9.81325437,13.4524701 9.74979252,13.3870952 9.74979252,13.3148388 L9.74979252,12.8778598 L9.68461549,12.8778598 C8.50285295,13.3974175 7.4960393,13.6365517 6.50294712,13.6365517 C2.96280507,13.6365517 0.18763556,10.6929648 0.18763556,6.92014993 C0.18763556,3.10604573 2.67122359,0.54954648 6.36744749,0.54954648 C7.3571093,0.54954648 8.62463109,0.618362069 9.81153919,1.98779235 L9.81153919,0.446323084 C10.6502647,0.62524363 11.6399265,0.98308471 12.5798479,1.6609183 L12.5832784,13.3234407 Z" id="path42"></path>
                                            </g>
                                            <g id="g44" transform="translate(34.770973, 8.892006)" fill="#072F54" fill-rule="nonzero">
                                                <path d="M3.43037021,3.44077961 L11.378538,3.44422039 C11.258475,2.55305846 10.9583176,1.51050225 10.2688132,0.447301349 L3.44923725,0.447301349 L2.09081064,0.447301349 L1.99990583,0.447301349 C0.987946621,0.447301349 0.156081844,1.23351949 0.0566011085,2.2279048 C0.0514555532,2.2433883 0.0463099979,2.25715142 0.0445948127,2.27091455 L0.0445948127,10.4358846 L0.0445948127,17.993557 C0.0463099979,18.0055997 0.0514555532,18.0228036 0.0566011085,18.033126 C0.156081844,19.0292317 0.987946621,19.8188906 1.99990583,19.8188906 C2.03249434,19.8188906 2.06336769,19.8154498 2.09081064,19.8154498 L11.3613861,19.8171701 C11.239608,18.9277287 10.9394506,17.8576462 10.2516614,16.797886 L3.43037021,16.797886 L3.43037021,12.5175563 L10.183054,12.5175563 C10.2104969,12.5175563 10.2310792,12.4986319 10.2310792,12.4711057 L10.2310792,9.5017129 C10.2310792,9.47762743 10.2104969,9.45526237 10.183054,9.45526237 L3.43037021,9.45526237 L3.43037021,3.44422039 L3.43037021,3.44077961 Z" id="path46"></path>
                                            </g>
                                            <g id="g48" transform="translate(26.536712, 8.610669)" fill="#072F54" fill-rule="nonzero">
                                                <path d="M1.71518511,0.479010501 C0.929630327,0.479010501 0.444232942,1.09491005 0.444232942,1.84844078 C0.444232942,2.6553036 0.999952917,3.21787106 1.71518511,3.21787106 C2.42355656,3.21787106 2.97756135,2.6553036 2.97756135,1.84844078 C2.97756135,1.03985757 2.42355656,0.479010501 1.71518511,0.479010501 M1.71518511,3.37270614 C0.910763291,3.37270614 0.222974063,2.76540855 0.222974063,1.84844078 C0.222974063,0.98136432 0.843871072,0.329336578 1.71518511,0.329336578 C2.5093158,0.329336578 3.20053541,0.933193403 3.20053541,1.84844078 C3.20053541,2.76540855 2.5093158,3.37270614 1.71518511,3.37270614" id="path50"></path>
                                            </g>
                                            <g id="g52" transform="translate(27.417749, 8.863965)" fill="#072F54" fill-rule="nonzero">
                                                <path d="M0.477561349,1.72038981 L0.477561349,2.27607571 L0.851471696,2.27607571 C1.04014205,2.27607571 1.26311613,2.24682908 1.26311613,2.01629685 C1.26311613,1.74275487 1.05729391,1.72038981 0.822313552,1.72038981 L0.477561349,1.72038981 Z M1.53926093,1.98016867 C1.53926093,2.34317092 1.31628686,2.498006 0.88406021,2.498006 L0.20313172,2.498006 L0.20313172,0.696757871 L0.49985875,0.696757871 L0.49985875,1.4674925 L0.774288366,1.4674925 L1.23910353,0.696757871 L1.57356463,0.696757871 L1.06930021,1.48813718 C1.34201464,1.52082459 1.53926093,1.6532946 1.53926093,1.98016867 L1.53926093,1.98016867 Z" id="path54"></path>
                                            </g>
                                            <g id="g56" transform="translate(121.374614, 18.942814)" fill="#072F54" fill-rule="nonzero">
                                                <path d="M1.71518511,0.479010501 C0.929630327,0.479010501 0.440802572,1.09491005 0.440802572,1.84844078 C0.440802572,2.6553036 0.998237731,3.21787106 1.71518511,3.21787106 C2.42184137,3.21787106 2.97756135,2.6553036 2.97756135,1.84844078 C2.97756135,1.03985757 2.42184137,0.479010501 1.71518511,0.479010501 M1.71518511,3.37270614 C0.910763291,3.37270614 0.222974063,2.76540855 0.222974063,1.84844078 C0.222974063,0.98136432 0.842155887,0.329336578 1.71518511,0.329336578 C2.50760062,0.329336578 3.19710504,0.934913793 3.19710504,1.84844078 C3.19710504,2.76540855 2.50760062,3.37270614 1.71518511,3.37270614" id="path58"></path>
                                            </g>
                                            <g id="g60" transform="translate(122.254106, 19.196970)" fill="#072F54" fill-rule="nonzero">
                                                <path d="M0.477561349,1.72038981 L0.477561349,2.27435533 L0.851471696,2.27435533 C1.04014205,2.27435533 1.26311613,2.24682908 1.26311613,2.01629685 C1.26311613,1.74103448 1.05557873,1.72038981 0.824028738,1.72038981 L0.477561349,1.72038981 Z M1.53926093,1.98016867 C1.53926093,2.34317092 1.31628686,2.498006 0.88406021,2.498006 L0.20313172,2.498006 L0.20313172,0.696757871 L0.496428379,0.696757871 L0.496428379,1.46577211 L0.774288366,1.46577211 L1.23910353,0.696757871 L1.57184944,0.696757871 L1.06930021,1.48813718 C1.34029946,1.5191042 1.53926093,1.6532946 1.53926093,1.98016867 L1.53926093,1.98016867 Z" id="path62"></path>
                                            </g>
                                            <g id="g64" transform="translate(0.847527, 20.064337)" fill="#072F54" fill-rule="nonzero">
                                                <path d="M17.1518511,5.64017991 L16.5755489,7.27627062 L11.6872713,13.8292354 L12.565446,14.0477249 L20.9938657,6.73950899 L25.9541811,8.16227136 C26.5373439,8.31366567 27.1994054,8.34635308 27.7036698,8.3429123 C26.1445666,11.7148763 23.2922137,14.4829835 19.5256672,15.8283283 C12.0800487,18.4897713 3.89347019,14.5879273 1.24522438,7.11627437 C0.425365906,4.80579085 0.229834804,2.42133058 0.57458701,0.153856825 L12.4573895,4.29483508 L17.1518511,5.64017991 Z" id="path66"></path>
                                            </g>
                                            <g id="g68" transform="translate(1.152776, 7.712454)" fill="#072F54" fill-rule="nonzero">
                                                <path d="M27.920523,19.4032984 C27.484866,19.119434 26.845102,18.7478299 26.2104835,18.5431034 L21.2398771,17.1203411 L17.922709,6.44016117 L17.0616861,6.15973763 L17.7614817,14.3161057 L17.3704194,16.0106897 L12.7119767,14.6773876 L0.400378007,11.7699288 C1.37460316,7.01649175 4.72950522,2.87723388 9.61949796,1.12931784 C17.0668317,-1.53212519 25.2499798,2.37143928 27.8982256,9.83793103 C29.0405389,13.0567804 28.9667859,16.4149812 27.920523,19.4032984" id="path70"></path>
                                            </g>
                                            <g id="g72" transform="translate(1.371001, 13.399772)" fill="#FBC108" fill-rule="nonzero">
                                                <path d="M17.1518511,10.3223388 L17.5446285,8.62947526 L16.8431177,0.473107196 L17.7041407,0.753530735 L21.0213087,11.4319903 L25.9919151,12.8547526 C26.6265335,13.059479 27.2662976,13.4345239 27.7019546,13.7149476 C27.5493032,14.1536469 27.3743543,14.5854648 27.1805384,15.0069602 C26.6762739,15.0104011 26.0142125,14.9759933 25.4310495,14.8280398 L20.4707343,13.4018366 L12.0405994,20.7134933 L11.1641399,20.4932834 L16.0507022,13.9403186 L16.6287196,12.3059483 L11.9325428,10.9571627 L0.0514555532,6.81962519 C0.0891896255,6.57188906 0.132069254,6.32587331 0.181809621,6.08157796 L12.4951235,8.98903673 L17.1518511,10.3223388 Z" id="path74"></path>
                                            </g>
                                        </g>
                                    </g>
                                </g>
                            </g>
                        </g>
                    </g>
                </g>
            </g>
        </g>
    </g>
</svg>