<?xml version="1.0" encoding="utf-8"?>
<!-- Generator: Adobe Illustrator 19.2.1, SVG Export Plug-In . SVG Version: 6.00 Build 0)  -->
<svg version="1.1" id="Layer_1" xmlns="http://www.w3.org/2000/svg" xmlns:xlink="http://www.w3.org/1999/xlink" x="0px" y="0px"
	 viewBox="0 0 97 36" style="enable-background:new 0 0 97 36;" xml:space="preserve">
<style type="text/css">
	.st0{fill:#48555C;}
	.st1{fill:#B2AD4B;}
	.st2{fill:#E4B33A;}
	.st3{fill:#4E5C5A;}
	.st4{fill:#9F9540;}
	.st5{fill:#6A7B54;}
	.st6{fill:#D55641;}
	.st7{fill:#993428;}
	.st8{fill:#E8703E;}
	.st9{fill:#F2A838;}
	.st10{fill:#272524;}
</style>
<g>
	<path class="st0" d="M14,24.2l-6.2,8.6c2.7,1.9,6,3,9.5,3.1l0-10.6C16.1,25.2,15,24.9,14,24.2z"/>
	<path class="st1" d="M17.3,10.6V-0.1c-3.5,0.1-6.8,1.2-9.5,3.1l6.2,8.6C15,11,16.1,10.7,17.3,10.6z"/>
	<path class="st2" d="M27.9,3c-2.7-1.9-6-3-9.5-3.1v10.6c1.2,0.1,2.3,0.5,3.3,1.1L27.9,3z"/>
	<path class="st3" d="M11.1,20.8L1.1,24c1.2,3.3,3.2,6.1,5.9,8.1l6.2-8.6C12.3,22.8,11.6,21.9,11.1,20.8z"/>
	<path class="st4" d="M13.1,12.3L7,3.7c-2.7,2.1-4.7,4.9-5.9,8.2l10,3.3C11.5,14,12.3,13.1,13.1,12.3z"/>
	<path class="st5" d="M10.6,17.9c0-0.6,0.1-1.2,0.2-1.7l-10-3.3c-0.5,1.6-0.7,3.3-0.7,5c0,1.8,0.2,3.4,0.7,5.1l10-3.3
		C10.6,19.1,10.6,18.6,10.6,17.9z"/>
	<path class="st6" d="M22.6,23.6l6.2,8.6c2.7-2.1,4.7-4.9,5.9-8.2l-10-3.3C24.2,21.8,23.5,22.8,22.6,23.6z"/>
	<path class="st7" d="M18.5,25.3v10.6c3.5-0.1,6.8-1.2,9.5-3.1l-6.2-8.6C20.8,24.8,19.7,25.2,18.5,25.3z"/>
	<path class="st8" d="M35,12.9l-10,3.3c0.1,0.6,0.2,1.2,0.2,1.8c0,0.6-0.1,1.2-0.2,1.7L35,23c0.5-1.6,0.7-3.3,0.7-5
		C35.7,16.2,35.5,14.5,35,12.9z"/>
	<path class="st9" d="M24.7,15.1l10-3.3c-1.2-3.3-3.2-6.1-5.9-8.1l-6.2,8.6C23.5,13.1,24.2,14,24.7,15.1z"/>
</g>
<g>
	<path class="st10" d="M46.6,25.8c-2.1,0-3-1.4-3-3.1V10h2.2v12.5c0,0.9,0.3,1.3,1.2,1.3h1v1.9H46.6z"/>
	<path class="st10" d="M49.3,12.3V10h2.4v2.4H49.3z M49.4,25.8V14.6h2.2v11.2H49.4z"/>
	<path class="st10" d="M57.3,25.8c-2.1,0-3-1.5-3-3.1v-6.2H53v-1.7h1.3v-3.4h2.2v3.4h2.1v1.7h-2.1v6.1c0,0.8,0.4,1.3,1.2,1.3h0.9
		v1.9H57.3z"/>
	<path class="st10" d="M73.9,25.8V19c0-1.8-1-2.5-2.2-2.5c-1.2,0-2.3,0.8-2.3,2.4v7h-2.2V19c0-1.8-1-2.5-2.2-2.5
		c-1.3,0-2.3,0.8-2.3,2.5v6.8h-2.2V14.6h2.2v1.1c0.7-0.8,1.8-1.3,3-1.3c1.4,0,2.5,0.6,3.2,1.6c0.9-1.1,2-1.6,3.5-1.6
		c1.1,0,2.2,0.4,2.8,1c0.9,0.8,1.2,1.9,1.2,3.2v7.2H73.9z"/>
	<path class="st10" d="M84.6,25.8v-1.1c-0.8,0.8-1.8,1.3-3,1.3c-1.1,0-2.1-0.4-2.7-1c-0.9-0.8-1.1-1.9-1.1-3.2v-7.2H80v6.8
		c0,1.8,1,2.5,2.2,2.5c1.3,0,2.3-0.8,2.3-2.5v-6.8h2.2v11.2H84.6z"/>
	<path class="st10" d="M92.4,25.9c-1.8,0-3.4-0.3-4.7-1.6l1.5-1.5c0.9,0.9,2.1,1.2,3.2,1.2c1.4,0,2.4-0.5,2.4-1.6
		c0-0.8-0.4-1.2-1.5-1.3L91.6,21c-2.1-0.2-3.3-1.1-3.3-3.1c0-2.2,1.9-3.4,4.2-3.4c1.7,0,3.1,0.4,4.1,1.3l-1.4,1.4
		c-0.7-0.6-1.7-0.8-2.7-0.8c-1.3,0-2,0.6-2,1.4c0,0.7,0.4,1.2,1.5,1.3l1.8,0.2c2.1,0.2,3.3,1.2,3.3,3.2
		C97.1,24.7,95.1,25.9,92.4,25.9z"/>
</g>
</svg>
