<?xml version="1.0" encoding="UTF-8"?>
<svg width="100px" height="27px" viewBox="0 0 100 27" version="1.1" xmlns="http://www.w3.org/2000/svg" xmlns:xlink="http://www.w3.org/1999/xlink">
    <!-- Generator: Sketch 58 (84663) - https://sketch.com -->
    <title>netflix-logo</title>
    <desc>Created with Sketch.</desc>
    <g id="Master" stroke="none" stroke-width="1" fill="none" fill-rule="evenodd">
        <g id="1326-Litmus-Home-v6b" transform="translate(-971.000000, -1368.000000)" fill="#E50914" fill-rule="nonzero">
            <g id="netflix-logo" transform="translate(971.000000, 1368.000000)">
                <path d="M76.7256637,23.9823009 C78.0530973,24.0707965 79.5575221,24.2477876 80.8849558,24.3362832 L80.8849558,0 L76.7256637,0 L76.7256637,23.9823009 Z M10.0884956,14.9557522 L4.69026549,0 L0.796460177,0 L0.796460177,26.460177 C2.12389381,26.1946903 3.62831858,26.1061947 4.95575221,25.840708 L4.95575221,11.5044248 L9.73451327,25.3097345 C11.2389381,25.2212389 12.8318584,24.9557522 14.2477876,24.7787611 L14.2477876,0 L10.0884956,0 L10.0884956,14.9557522 L10.0884956,14.9557522 Z M18.2300885,24.3362832 C22.0353982,23.9823009 25.9292035,23.7168142 29.7345133,23.4513274 L29.7345133,19.4690265 C27.2566372,19.5575221 24.8672566,19.8230088 22.3893805,20 L22.3893805,13.7168142 C23.9823009,13.7168142 26.0176991,13.6283186 28.0530973,13.7168142 L28.0530973,9.6460177 C26.5486726,9.6460177 24.159292,9.6460177 22.3893805,9.6460177 L22.3893805,4.15929204 L29.7345133,4.15929204 L29.7345133,0 L18.2300885,0 C18.2300885,0 18.2300885,24.3362832 18.2300885,24.3362832 Z M32.4778761,4.15929204 L36.7256637,4.15929204 L36.7256637,23.2743363 C38.0530973,23.2743363 39.5575221,23.1858407 40.8849558,23.1858407 L40.8849558,4.15929204 L45.1327434,4.15929204 L45.1327434,0 L32.4778761,0 L32.4778761,4.15929204 Z M47.8761062,23.0088496 L52.0353982,23.0088496 L52.0353982,13.539823 L57.699115,13.539823 L57.699115,9.38053097 L52.0353982,9.38053097 L52.0353982,4.15929204 L59.4690265,4.15929204 L59.4690265,0 L47.8761062,0 L47.8761062,23.0088496 Z M99.1150442,0 L94.6017699,0 L91.5044248,6.99115044 L88.9380531,0 L84.4247788,0 L89.2035398,12.4778761 L83.9823009,24.6902655 C85.4867257,24.7787611 86.9026549,24.9557522 88.4070796,25.2212389 L91.5044248,18.1415929 L94.6017699,25.9292035 C96.1946903,26.1946903 97.7876106,26.2831858 99.380531,26.5486726 L99.380531,26.5486726 L93.8938053,12.4778761 L99.1150442,0 Z M66.1946903,0 L62.0353982,0 L62.0353982,23.0973451 C65.840708,23.1858407 69.4690265,23.4513274 73.2743363,23.7168142 L73.2743363,19.6460177 C70.9734513,19.5575221 68.4955752,19.380531 66.1946903,19.2920354 L66.1946903,0 Z" id="Shape"></path>
            </g>
        </g>
    </g>
</svg>