<?xml version="1.0" encoding="UTF-8"?>
<svg width="158px" height="20px" viewBox="0 0 158 20" version="1.1" xmlns="http://www.w3.org/2000/svg" xmlns:xlink="http://www.w3.org/1999/xlink">
    <!-- Generator: Sketch 58 (84663) - https://sketch.com -->
    <title>Oracle_logo</title>
    <desc>Created with Sketch.</desc>
    <g id="05-Agency-Page-v5" stroke="none" stroke-width="1" fill="none" fill-rule="evenodd">
        <g id="Litmus-for-Agencies" transform="translate(-645.000000, -951.000000)" fill="#F80000" fill-rule="nonzero">
            <g id="Oracle_logo" transform="translate(644.500000, 951.000000)">
                <path d="M66.4185083,13.0118542 L76.5040916,13.0118542 L71.1711949,4.36362836 L61.3834908,20 L56.9289364,20 L68.8340471,1.21738443 C69.3516724,0.458487869 70.2143376,0 71.1711949,0 C72.0965638,0 72.9592439,0.442685703 73.461192,1.1857651 L85.4133492,20 L80.9587824,20 L78.8569365,16.5059284 L68.6457867,16.5059284 L66.4185083,13.0118542 Z M112.69001,16.5059284 L112.69001,0.189723516 L108.909868,0.189723516 L108.909868,18.1027723 C108.909868,18.5928921 109.098123,19.0671946 109.458855,19.430827 C109.819562,19.7944718 110.305831,20 110.839138,20 L128.077257,20 L130.304541,16.5059284 L112.69001,16.5059284 Z M50.1529114,13.5810273 C53.8233156,13.5810273 56.8035138,10.5928901 56.8035138,6.89327774 C56.8035138,3.19367793 53.8233156,0.189723516 50.1529114,0.189723516 L33.6158972,0.189723516 L33.6158972,20 L37.3945409,20 L37.3945409,3.68379764 L49.9019373,3.68379764 C51.6587509,3.68379764 53.0703958,5.12252242 53.0703958,6.89327774 C53.0703958,8.66403056 51.6587509,10.1027703 49.9019373,10.1027703 L39.2454227,10.0869532 L50.529308,20 L56.0192372,20 L48.4275811,13.5810273 L50.1529114,13.5810273 Z M10.3547821,20 C4.92919422,20 0.526315789,15.573123 0.526315789,10.1027703 C0.526315789,4.63240522 4.92919422,0.189723516 10.3547821,0.189723516 L21.7782637,0.189723516 C27.2053551,0.189723516 31.6051001,4.63240522 31.6051001,10.1027703 C31.6051001,15.573123 27.2053551,20 21.7782637,20 L10.3547821,20 Z M21.5241562,16.5059284 C25.0392845,16.5059284 27.8861558,13.6442635 27.8861558,10.1027703 C27.8861558,6.56126221 25.0392845,3.68379764 21.5241562,3.68379764 L10.6072597,3.68379764 C7.09376138,3.68379764 4.24525757,6.56126221 4.24525757,10.1027703 C4.24525757,13.6442635 7.09376138,16.5059284 10.6072597,16.5059284 L21.5241562,16.5059284 Z M93.303006,20 C87.8759022,20 83.4683993,15.573123 83.4683993,10.1027703 C83.4683993,4.63240522 87.8759022,0.189723516 93.303006,0.189723516 L106.870741,0.189723516 L104.659137,3.68379764 L93.5539801,3.68379764 C90.0404669,3.68379764 87.1858227,6.56126221 87.1858227,10.1027703 C87.1858227,13.6442635 90.0404669,16.5059284 93.5539801,16.5059284 L107.184409,16.5059284 L104.95715,20 L93.303006,20 Z M139.527466,16.5059284 C136.625659,16.5059284 134.163081,14.5454495 133.410159,11.8418913 L149.566008,11.8418913 L151.793291,8.34781969 L133.410159,8.34781969 C134.163081,5.66007614 136.625659,3.68379764 139.527466,3.68379764 L150.616943,3.68379764 L152.859906,0.189723516 L139.276492,0.189723516 C133.849388,0.189723516 129.441885,4.63240522 129.441885,10.1027703 C129.441885,15.573123 133.849388,20 139.276492,20 L150.930636,20 L153.157895,16.5059284 L139.527466,16.5059284" id="path16197"></path>
                <path d="M154.660081,2.09033396 C154.660081,1.1795357 155.394211,0.447923307 156.3083,0.447923307 C157.237368,0.447923307 157.971498,1.1795357 157.971498,2.09033396 C157.971498,3.01604134 157.237368,3.7476679 156.3083,3.7476679 C155.394211,3.7476679 154.660081,3.01604134 154.660081,2.09033396 Z M156.3083,4.21052632 C157.477006,4.21052632 158.421053,3.26986966 158.421053,2.10525725 C158.421053,0.940644848 157.477006,0 156.3083,0 C155.154455,0 154.210526,0.940644848 154.210526,2.10525725 C154.210526,3.26986966 155.154455,4.21052632 156.3083,4.21052632 Z M156.11348,0.85106491 C156.44311,0.85106491 156.578014,0.865988208 156.727897,0.92570738 C157.1474,1.06009736 157.192313,1.43336403 157.192313,1.58267731 C157.192313,1.61253807 157.192313,1.68719235 157.162355,1.77677229 C157.1474,1.8663664 157.087485,2.04553808 156.877686,2.17991389 C156.847728,2.194849 156.832749,2.20977466 156.772834,2.23963306 L157.312262,3.21015049 L156.787813,3.21015049 L156.3083,2.3142897 L155.978694,2.3142897 L155.978694,3.21015049 L155.51416,3.21015049 L155.51416,0.85106491 L156.11348,0.85106491 Z M156.278342,1.92608557 C156.428131,1.91116227 156.578014,1.91116227 156.667887,1.77677229 C156.7128,1.71705312 156.727897,1.65733395 156.727897,1.56773984 C156.727897,1.4483015 156.652908,1.34378409 156.548056,1.28405311 C156.44311,1.23926905 156.338258,1.23926905 156.11348,1.23926905 L155.978694,1.23926905 L155.978694,1.92608557 L156.278342,1.92608557" id="path16199"></path>
            </g>
        </g>
    </g>
</svg>