<?xml version="1.0" encoding="UTF-8"?>
<svg width="92px" height="73px" viewBox="0 0 92 73" version="1.1" xmlns="http://www.w3.org/2000/svg" xmlns:xlink="http://www.w3.org/1999/xlink">
    <!-- Generator: Sketch 58 (84663) - https://sketch.com -->
    <title>reviews + collab</title>
    <desc>Created with Sketch.</desc>
    <defs>
        <polygon id="path-1" points="0.000554216867 0.0464545455 91.6142651 0.0464545455 91.6142651 73 0.000554216867 73"></polygon>
    </defs>
    <g id="Master" stroke="none" stroke-width="1" fill="none" fill-rule="evenodd">
        <g id="1326-Litmus-Home-v6b" transform="translate(-728.000000, -1830.000000)">
            <g id="Group-6" transform="translate(0.000000, 1643.000000)">
                <g id="reviews-+-collab" transform="translate(728.000000, 187.000000)">
                    <path d="M48.8978069,13 L12.1021931,13 C11.4926803,13 11,12.552 11,12 C11,11.448 11.4926803,11 12.1021931,11 L48.8978069,11 C49.5073197,11 50,11.448 50,12 C50,12.552 49.5073197,13 48.8978069,13" id="Fill-1" fill="#29B17B"></path>
                    <path d="M54.8950548,23 L12.1049452,23 C11.4950155,23 11,22.552 11,22 C11,21.448 11.4950155,21 12.1049452,21 L54.8950548,21 C55.5060895,21 56,21.448 56,22 C56,22.552 55.5060895,23 54.8950548,23" id="Fill-3" fill="#29B17B"></path>
                    <path d="M40.8961686,32 L12.1038314,32 C11.4934126,32 11,31.552 11,31 C11,30.448 11.4934126,30 12.1038314,30 L40.8961686,30 C41.5065874,30 42,30.448 42,31 C42,31.552 41.5065874,32 40.8961686,32" id="Fill-5" fill="#29B17B"></path>
                    <g id="Group-9">
                        <mask id="mask-2" fill="white">
                            <use xlink:href="#path-1"></use>
                        </mask>
                        <g id="Clip-8"></g>
                        <path d="M63.8507711,70.7878788 L44.2037831,70.7878788 L34.8164578,61.4195455 C32.8722651,59.4795152 32.8722651,56.3206061 34.8164578,54.3805758 L45.1348675,44.0842576 L52.5092771,44.0842576 L71.5599277,63.0941212 L63.8507711,70.7878788 Z M32.3235904,41.8721364 L16.6691807,59.1775606 L16.6691807,41.8721364 L8.8680241,41.8721364 C5.20021687,41.8721364 2.21742169,38.8957273 2.21742169,35.2357727 L2.21742169,8.89493939 C2.21742169,5.23609091 5.20021687,2.25857576 8.8680241,2.25857576 L64.1921687,2.25857576 C67.8588675,2.25857576 70.8427711,5.23609091 70.8427711,8.89493939 L70.8427711,20.6678485 L70.8427711,35.2357727 C70.8427711,38.8957273 67.8588675,41.8721364 64.1921687,41.8721364 L50.2924096,41.8721364 L47.3517349,41.8721364 L44.2170843,41.8721364 L32.3235904,41.8721364 Z M91.6148193,43.2259545 C91.6148193,41.300303 90.8677349,39.4952121 89.511012,38.1425 C89.511012,38.1425 73.3079277,22.0072879 73.0596386,21.8181515 L73.0596386,8.89493939 C73.0596386,4.01610606 69.0814699,0.0464545455 64.1921687,0.0464545455 L8.8680241,0.0464545455 C3.97761446,0.0464545455 0.000554216867,4.01610606 0.000554216867,8.89493939 L0.000554216867,35.2357727 C0.000554216867,40.1146061 3.97761446,44.0842576 8.8680241,44.0842576 L14.4523133,44.0842576 L14.4523133,64.9290758 L33.3078795,44.0842576 L42.0002169,44.0842576 L33.2491325,52.8166061 C30.439253,55.6193636 30.439253,60.1807576 33.2491325,62.9835152 L43.286,73 L87.6144819,73 L87.6144819,70.7878788 L66.9854217,70.7878788 L89.511012,48.3094091 C90.8677349,46.956697 91.6148193,45.1516061 91.6148193,43.2259545 L91.6148193,43.2259545 Z" id="Fill-7" fill="#235BA8" mask="url(#mask-2)"></path>
                    </g>
                </g>
            </g>
        </g>
    </g>
</svg>