<?xml version="1.0" encoding="UTF-8"?>
<svg width="66px" height="75px" viewBox="0 0 66 75" version="1.1" xmlns="http://www.w3.org/2000/svg" xmlns:xlink="http://www.w3.org/1999/xlink">
    <!-- Generator: Sketch 58 (84663) - https://sketch.com -->
    <title>tech + int v2</title>
    <desc>Created with Sketch.</desc>
    <defs>
        <polygon id="path-1" points="0.317259574 0.43942623 56.967983 0.43942623 56.967983 75 0.317259574 75"></polygon>
    </defs>
    <g id="Master" stroke="none" stroke-width="1" fill="none" fill-rule="evenodd">
        <g id="1326-Litmus-Home-v6b" transform="translate(-727.000000, -2167.000000)">
            <g id="Group-6" transform="translate(0.000000, 1643.000000)">
                <g id="tech-+-int-v2" transform="translate(727.000000, 524.000000)">
                    <path d="M33.7210789,11 L25.2789211,11 C24.5729566,11 24,10.553 24,10 C24,9.447 24.5729566,9 25.2789211,9 L33.7210789,9 C34.4283223,9 35,9.447 35,10 C35,10.553 34.4283223,11 33.7210789,11" id="Fill-1" fill="#29B17B"></path>
                    <path d="M55.7210789,11 L47.2789211,11 C46.5729566,11 46,10.553 46,10 C46,9.447 46.5729566,9 47.2789211,9 L55.7210789,9 C56.4283223,9 57,9.447 57,10 C57,10.553 56.4283223,11 55.7210789,11" id="Fill-3" fill="#29B17B"></path>
                    <path d="M42.6913442,11 L38.3086558,11 C37.5862778,11 37,10.553 37,10 C37,9.447 37.5862778,9 38.3086558,9 L42.6913442,9 C43.4150308,9 44,9.447 44,10 C44,10.553 43.4150308,11 42.6913442,11" id="Fill-5" fill="#29B17B"></path>
                    <path d="M19.8833054,11 L18.1166946,11 C17.4991625,11 17,10.553 17,10 C17,9.447 17.4991625,9 18.1166946,9 L19.8833054,9 C20.5008375,9 21,9.447 21,10 C21,10.553 20.5008375,11 19.8833054,11" id="Fill-7" fill="#29B17B"></path>
                    <path d="M49.7657369,27 L42.2342631,27 C41.5529499,27 41,26.553 41,26 C41,25.447 41.5529499,25 42.2342631,25 L49.7657369,25 C50.4482844,25 51,25.447 51,26 C51,26.553 50.4482844,27 49.7657369,27" id="Fill-9" fill="#29B17B"></path>
                    <path d="M37.6277201,27 L33.3722799,27 C32.6147814,27 32,26.553 32,26 C32,25.447 32.6147814,25 33.3722799,25 L37.6277201,25 C38.3865909,25 39,25.447 39,26 C39,26.553 38.3865909,27 37.6277201,27" id="Fill-11" fill="#29B17B"></path>
                    <path d="M59.6910995,27 L55.3089005,27 C54.5863874,27 54,26.553 54,26 C54,25.447 54.5863874,25 55.3089005,25 L59.6910995,25 C60.4149215,25 61,25.447 61,26 C61,26.553 60.4149215,27 59.6910995,27" id="Fill-13" fill="#29B17B"></path>
                    <path d="M28.5754986,27 L25.4245014,27 C24.6367521,27 24,26.553 24,26 C24,25.447 24.6367521,25 25.4245014,25 L28.5754986,25 C29.3632479,25 30,25.447 30,26 C30,26.553 29.3632479,27 28.5754986,27" id="Fill-15" fill="#29B17B"></path>
                    <path d="M47.5369422,42 L44.4630578,42 C43.6554499,42 43,41.553 43,41 C43,40.447 43.6554499,40 44.4630578,40 L47.5369422,40 C48.3460132,40 49,40.447 49,41 C49,41.553 48.3460132,42 47.5369422,42" id="Fill-17" fill="#29B17B"></path>
                    <path d="M39.7378518,42 L32.2621482,42 C31.5641802,42 31,41.553 31,41 C31,40.447 31.5641802,40 32.2621482,40 L39.7378518,40 C40.4358198,40 41,40.447 41,41 C41,41.553 40.4358198,42 39.7378518,42" id="Fill-19" fill="#29B17B"></path>
                    <path d="M59.7033195,42 L52.2966805,42 C51.5796162,42 51,41.553 51,41 C51,40.447 51.5796162,40 52.2966805,40 L59.7033195,40 C60.4203838,40 61,40.447 61,41 C61,41.553 60.4203838,42 59.7033195,42" id="Fill-21" fill="#29B17B"></path>
                    <path d="M45.7608426,35 L36.2391574,35 C35.5551425,35 35,34.553 35,34 C35,33.447 35.5551425,33 36.2391574,33 L45.7608426,33 C46.4460967,33 47,33.447 47,34 C47,34.553 46.4460967,35 45.7608426,35" id="Fill-23" fill="#29B17B"></path>
                    <path d="M19.8833054,19 L18.1166946,19 C17.4991625,19 17,18.553 17,18 C17,17.447 17.4991625,17 18.1166946,17 L19.8833054,17 C20.5008375,17 21,17.447 21,18 C21,18.553 20.5008375,19 19.8833054,19" id="Fill-25" fill="#29B17B"></path>
                    <path d="M46.8316847,19 L34.1683153,19 C33.5222369,19 33,18.553 33,18 C33,17.447 33.5222369,17 34.1683153,17 L46.8316847,17 C47.4777631,17 48,17.447 48,18 C48,18.553 47.4777631,19 46.8316847,19" id="Fill-27" fill="#29B17B"></path>
                    <path d="M59.6857477,19 L53.3142523,19 C52.588785,19 52,18.553 52,18 C52,17.447 52.588785,17 53.3142523,17 L59.6857477,17 C60.4125292,17 61,17.447 61,18 C61,18.553 60.4125292,19 59.6857477,19" id="Fill-29" fill="#29B17B"></path>
                    <path d="M57.7639909,50 L42.2360091,50 C41.5524961,50 41,49.553 41,49 C41,48.447 41.5524961,48 42.2360091,48 L57.7639909,48 C58.4475039,48 59,48.447 59,49 C59,49.553 58.4475039,50 57.7639909,50" id="Fill-31" fill="#29B17B"></path>
                    <path d="M35.7959618,50 L25.2040382,50 C24.5382051,50 24,49.553 24,49 C24,48.447 24.5382051,48 25.2040382,48 L35.7959618,48 C36.4617949,48 37,48.447 37,49 C37,49.553 36.4617949,50 35.7959618,50" id="Fill-33" fill="#29B17B"></path>
                    <path d="M19.8833054,58 L18.1166946,58 C17.4991625,58 17,57.553 17,57 C17,56.447 17.4991625,56 18.1166946,56 L19.8833054,56 C20.5008375,56 21,56.447 21,57 C21,57.553 20.5008375,58 19.8833054,58" id="Fill-35" fill="#29B17B"></path>
                    <path d="M34.7951807,58 L25.2048193,58 C24.5385542,58 24,57.553 24,57 C24,56.447 24.5385542,56 25.2048193,56 L34.7951807,56 C35.4614458,56 36,56.447 36,57 C36,57.553 35.4614458,58 34.7951807,58" id="Fill-37" fill="#29B17B"></path>
                    <path d="M47.8207547,58 L41.1792453,58 C40.5271226,58 40,57.553 40,57 C40,56.447 40.5271226,56 41.1792453,56 L47.8207547,56 C48.4728774,56 49,56.447 49,57 C49,57.553 48.4728774,58 47.8207547,58" id="Fill-39" fill="#29B17B"></path>
                    <path d="M19.8833054,66 L18.1166946,66 C17.4991625,66 17,65.553 17,65 C17,64.447 17.4991625,64 18.1166946,64 L19.8833054,64 C20.5008375,64 21,64.447 21,65 C21,65.553 20.5008375,66 19.8833054,66" id="Fill-41" fill="#29B17B"></path>
                    <path d="M43.7859868,66 L32.2140132,66 C31.5426639,66 31,65.553 31,65 C31,64.447 31.5426639,64 32.2140132,64 L43.7859868,64 C44.4573361,64 45,64.447 45,65 C45,65.553 44.4573361,66 43.7859868,66" id="Fill-43" fill="#29B17B"></path>
                    <g id="Group-47" transform="translate(9.000000, 0.000000)">
                        <mask id="mask-2" fill="white">
                            <use xlink:href="#path-1"></use>
                        </mask>
                        <g id="Clip-46"></g>
                        <path d="M49.6913872,0.43942623 L7.59385532,0.43942623 C3.58081277,0.43942623 0.317259574,3.74803279 0.317259574,7.81647541 L0.317259574,20.2541803 C0.431259574,20.2517213 0.541621277,20.2369672 0.655621277,20.2369672 C0.95153617,20.2369672 1.2389617,20.2664754 1.53002553,20.282459 L1.53002553,7.81647541 C1.53002553,4.42672131 4.25025957,1.66893443 7.59385532,1.66893443 L49.6913872,1.66893443 C53.034983,1.66893443 55.755217,4.42672131 55.755217,7.81647541 L55.755217,67.6234426 C55.755217,71.0119672 53.034983,73.7709836 49.6913872,73.7709836 L7.59385532,73.7709836 C4.25025957,73.7709836 1.53002553,71.0119672 1.53002553,67.6234426 L1.53002553,55.157459 C1.2389617,55.1734426 0.95153617,55.2029508 0.655621277,55.2029508 C0.541621277,55.2029508 0.431259574,55.1869672 0.317259574,55.1845082 L0.317259574,67.6234426 C0.317259574,71.6906557 3.58081277,75.0004918 7.59385532,75.0004918 L49.6913872,75.0004918 C53.7044298,75.0004918 56.967983,71.6906557 56.967983,67.6234426 L56.967983,7.81647541 C56.967983,3.74803279 53.7044298,0.43942623 49.6913872,0.43942623" id="Fill-45" fill="#235BA8" mask="url(#mask-2)"></path>
                    </g>
                    <polygon id="Fill-48" fill="#235BA8" points="19 33.3497148 12.6502852 33.3497148 12.6502852 27 6.34971482 27 6.34971482 33.3497148 0 33.3497148 0 39.6502852 6.34971482 39.6502852 6.34971482 46 12.6502852 46 12.6502852 39.6502852 19 39.6502852"></polygon>
                </g>
            </g>
        </g>
    </g>
</svg>