<?xml version="1.0" encoding="UTF-8"?>
<svg width="95px" height="28px" viewBox="0 0 95 28" version="1.1" xmlns="http://www.w3.org/2000/svg" xmlns:xlink="http://www.w3.org/1999/xlink">
    <!-- Generator: Sketch 58 (84663) - https://sketch.com -->
    <title>trello-logo</title>
    <desc>Created with Sketch.</desc>
    <defs>
        <linearGradient x1="49.8154982%" y1="0.073800738%" x2="49.8154982%" y2="99.7785978%" id="linearGradient-1">
            <stop stop-color="#0079BF" offset="0%"></stop>
            <stop stop-color="#0079BF" offset="100%"></stop>
        </linearGradient>
    </defs>
    <g id="Master" stroke="none" stroke-width="1" fill="none" fill-rule="evenodd">
        <g id="1326-Litmus-Home-v6b" transform="translate(-1149.000000, -1367.000000)" fill-rule="nonzero">
            <g id="trello-logo" transform="translate(1149.000000, 1367.000000)">
                <path d="M76.1818182,20.4351095 C74.7407862,21.022066 73.5540541,23.0344884 71.7739558,24.2084014 C71.6891892,24.2922524 71.519656,24.2922524 71.519656,24.2922524 C71.3501229,24.2922524 71.1805897,24.1245505 71.1805897,23.537594 C71.1805897,21.2736188 71.9434889,20.2674076 72.536855,18.6742399 C74.6560197,13.2239294 78.3009828,8.52827721 81.6068796,3.32951945 C81.8611794,2.91026479 82.0307125,2.49101013 82.0307125,2.07175548 C82.0307125,1.65250082 81.8611794,1.31709709 81.6916462,0.981693364 C81.522113,0.646289637 80.9287469,0.394736842 80.1658477,0.394736842 C79.7420147,0.394736842 79.4029484,0.394736842 78.8943489,0.394736842 C77.1990172,0.394736842 76.8599509,2.91026479 76.4361179,3.49722131 C73.7235872,8.02517162 70.5872236,13.643184 68.9766585,17.6680288 C68.6375921,18.590389 68.2137592,19.4288983 67.9594595,20.3512586 C66.3488943,20.7705132 65.1621622,23.0344884 63.3820639,24.2084014 C63.2972973,24.2922524 63.1277641,24.2922524 63.1277641,24.2922524 C62.958231,24.2922524 62.7886978,24.1245505 62.7886978,23.537594 C62.7886978,21.2736188 63.5515971,20.2674076 64.1449631,18.6742399 C66.2641278,13.2239294 69.9090909,8.52827721 73.2149877,3.32951945 C73.4692875,2.91026479 73.6388206,2.49101013 73.6388206,2.07175548 C73.6388206,1.65250082 73.4692875,1.31709709 73.2997543,0.981693364 C73.1302211,0.646289637 72.536855,0.394736842 71.7739558,0.394736842 C71.3501229,0.394736842 71.0110565,0.394736842 70.502457,0.394736842 C68.8071253,0.394736842 68.468059,2.91026479 68.044226,3.49722131 C65.3316953,8.02517162 62.1953317,13.643184 60.5847666,17.6680288 C60.5,18.0034325 60.3304668,18.3388362 60.1609337,18.6742399 C60.1609337,18.6742399 60.0761671,18.7580909 60.0761671,18.7580909 C58.2113022,19.848153 56.6855037,21.7767244 54.3968059,23.0344884 C53.972973,23.2860412 52.6167076,24.2084014 51.514742,24.2084014 C51.2604423,24.2084014 51.0061425,24.1245505 50.8366093,24.0406996 C50.497543,23.8729977 50.1584767,23.2021903 50.1584767,23.0344884 C50.1584767,22.8667865 50.1584767,22.7829356 50.5823096,22.6152337 C53.8034398,20.6866623 56.3464373,18.0034325 58.6351351,15.2363517 C59.482801,14.2301406 60.5847666,12.2177182 60.5847666,10.7922524 C60.5847666,9.86989212 60.2457002,8.77983001 59.1437346,8.36057535 C58.3808354,8.10902256 57.4484029,7.94132069 56.6855037,7.94132069 C54.7358722,7.94132069 53.3796069,8.77983001 52.531941,9.61833933 C51.6842752,10.4568486 50.9213759,11.3792089 50.2432432,12.3015691 C49.480344,11.6307617 48.3783784,11.3792089 47.3611794,11.3792089 C46.1744472,11.3792089 43.8857494,12.8885257 42.7837838,13.727035 C42.6142506,13.8947368 42.529484,13.9785878 42.4447174,13.9785878 C42.4447174,13.9785878 42.3599509,13.9785878 42.3599509,13.8947368 C42.3599509,13.8947368 42.4447174,13.5593331 42.4447174,12.9723766 C42.4447174,12.469271 42.3599509,11.7984636 41.8513514,11.0438052 C41.7665848,10.8761033 41.0884521,10.4568486 40.3255528,10.4568486 C39.3083538,10.4568486 38.460688,10.9599542 38.460688,11.4630598 C38.460688,11.7984636 38.7997543,11.9661654 38.7997543,12.3015691 C38.7997543,12.469271 38.6302211,13.3077803 38.460688,14.0624387 C37.8673219,16.3264139 37.1044226,18.590389 36.2567568,20.8543642 C35.8329238,22.1121281 34.3918919,23.2021903 34.3918919,24.5438052 C34.3918919,24.9630598 34.6461916,25.5500163 35.0700246,25.969271 C35.7481572,26.7239294 36.0872236,26.9754822 36.6805897,26.9754822 C36.9348894,26.9754822 37.1891892,26.8916313 37.4434889,26.7239294 C37.9520885,26.2208238 38.2911548,25.8015691 38.460688,25.1307617 C39.3931204,20.9382151 42.1056511,18.0034325 45.1572482,16.158712 C46.1744472,15.4879045 47.5307125,14.8170971 47.7002457,14.8170971 C47.8697789,14.8170971 48.2088452,14.900948 48.463145,14.984799 C47.6154791,16.3264139 46.9373464,17.7518797 46.5135135,19.2611965 C46.3439803,19.7643021 46.2592138,20.2674076 46.2592138,20.7705132 C46.2592138,21.6090226 46.4287469,22.4475319 46.7678133,23.2860412 C47.1916462,24.4599542 47.7850123,25.4661654 48.7174447,25.8854201 C50.4127764,26.7239294 51.5995086,27.227035 52.7014742,27.227035 C53.2948403,27.227035 53.8034398,27.143184 54.3120393,26.8077803 C56.6855037,25.4661654 58.1265356,24.4599542 59.2285012,23.537594 C59.2285012,24.4599542 59.3980344,24.9630598 60.0761671,25.6338673 C60.7542998,26.3046747 61.7714988,26.8916313 63.1277641,27.227035 C63.3820639,27.227035 63.5515971,27.3108859 63.8058968,27.3108859 C65.3316953,27.3108859 66.8574939,26.0531219 67.9594595,24.8792089 C68.1289926,25.1307617 68.2985258,25.3823145 68.5528256,25.7177182 C69.2309582,26.3885257 70.2481572,26.9754822 71.6044226,27.3108859 C71.8587224,27.3108859 72.0282555,27.3947368 72.2825553,27.3947368 C74.0626536,27.3947368 75.7579853,25.7177182 77.029484,24.2922524 C77.453317,25.1307617 78.5552826,25.8854201 79.8267813,26.5562275 C80.1658477,26.7239294 80.5896806,26.8077803 81.0135135,26.8077803 C82.539312,26.8077803 83.7260442,25.5500163 84.5737101,24.6276561 C86.8624079,22.1959791 88.04914,19.1773455 88.9815725,15.4040536 C89.0663391,15.1525008 89.1511057,14.984799 89.3206388,14.984799 C89.6597052,14.984799 90.1683047,14.984799 90.6769042,14.900948 C91.6941032,14.7332462 92.4570025,14.3978424 93.3046683,14.3139915 C93.8132678,14.2301406 93.8132678,14.0624387 94.3218673,13.8108859 C94.6609337,13.643184 95,13.5593331 95,13.1400785 C95,12.5531219 93.8980344,11.8823145 92.2027027,11.8823145 C90.8464373,11.8823145 90.0835381,11.9661654 89.490172,11.9661654 C88.6425061,11.9661654 88.472973,11.7146126 87.8796069,10.2891468 C87.8796069,10.2891468 88.3882064,11.7146126 87.8796069,10.2891468 C87.7948403,10.037594 87.6253071,9.86989212 87.3710074,9.53448839 C86.6081081,8.86368094 85.6756757,8.69597908 84.9127764,8.69597908 C83.1326781,8.69597908 81.522113,10.5406996 80.4201474,12.0500163 C80.1658477,12.3854201 79.8267813,12.7208238 79.5724816,13.0562275 C77.7923833,15.2363517 76.3513514,17.7518797 76.1818182,20.4351095 Z M29.8144963,8.19287349 C30.7469287,8.19287349 31.2555283,8.10902256 31.3402948,8.10902256 C31.4250614,8.10902256 31.509828,8.10902256 31.509828,8.27672442 C31.509828,8.36057535 31.509828,8.44442628 31.2555283,9.0313828 C29.0515971,13.727035 27.5257985,18.5065381 26.1695332,23.7891468 C26.1695332,23.9568486 26,24.4599542 26,25.0469108 C26,25.5500163 26.1695332,26.0531219 26.6781327,26.3885257 C27.6953317,26.9754822 28.458231,27.227035 28.9668305,27.227035 C29.7297297,27.227035 30.1535627,26.7239294 30.1535627,25.8854201 C30.1535627,25.1307617 30.1535627,24.3761033 30.3230958,23.8729977 C31.3402948,18.590389 32.8660934,14.4816934 35.2395577,10.2052958 C36.3415233,8.19287349 36.5110565,8.02517162 36.5110565,7.85746976 C36.5110565,7.77361883 36.5110565,7.6897679 36.4262899,7.60591697 C37.8673219,7.27051324 39.6474201,7.10281138 41.1732187,7.10281138 C41.3427518,7.10281138 42.1056511,7.35436417 42.1904177,7.4382151 C42.4447174,7.6897679 42.6990172,7.94132069 43.1228501,7.94132069 C43.4619165,7.94132069 44.1400491,7.6897679 44.3095823,7.52206603 C44.8181818,7.18666231 45.0724816,6.76740765 45.0724816,6.0966002 C45.0724816,5.50964367 42.7837838,4.0003269 41.1732187,4.0003269 C39.2235872,4.0003269 37.4434889,4.2518797 35.7481572,4.58728343 C34.985258,4.75498529 32.4422604,5.09038902 30.492629,5.09038902 C28.7125307,5.09038902 28.7972973,4.83883622 28.034398,4.83883622 C27.6105651,4.83883622 27.3562654,5.09038902 27.1867322,5.25809088 C27.017199,5.42579274 26.9324324,6.18045113 26.9324324,6.76740765 C26.9324324,7.10281138 26.9324324,7.35436417 27.1019656,7.52206603 C27.6953317,8.02517162 28.7972973,8.19287349 29.8144963,8.19287349 C29.8144963,8.19287349 28.7972973,8.19287349 29.8144963,8.19287349 Z M56.6855037,11.1276561 C56.6855037,11.4630598 56.6007371,11.6307617 56.1769042,12.3854201 C55.7530713,13.0562275 55.9226044,13.0562275 55.4140049,13.8108859 C54.3968059,15.2363517 53.0405405,16.5779667 51.3452088,18.1711344 C50.8366093,18.590389 50.8366093,18.590389 50.7518428,18.590389 C50.7518428,18.590389 50.6670762,18.590389 50.6670762,18.5065381 C50.6670762,18.4226872 50.6670762,18.2549853 51.0909091,17.5003269 C52.1928747,15.1525008 53.6339066,13.643184 55.0749386,12.1338673 C55.9226044,11.295358 56.4312039,11.0438052 56.6007371,11.0438052 C56.6007371,10.8761033 56.6855037,10.9599542 56.6855037,11.1276561 C56.6855037,11.1276561 56.6855037,10.9599542 56.6855037,11.1276561 Z M84.5737101,12.0500163 C84.5737101,12.0500163 84.6584767,12.0500163 84.6584767,12.1338673 C84.6584767,12.2177182 84.7432432,12.3854201 84.9127764,12.469271 C85.0823096,12.5531219 85.0823096,13.0562275 85.0823096,13.4754822 C85.0823096,16.9133704 83.0479115,19.848153 81.0982801,22.6990847 C80.6744472,23.3698921 80.4201474,23.4537431 80.1658477,23.4537431 C79.9963145,23.4537431 79.6572482,22.9506375 79.5724816,22.6990847 C79.4029484,22.27983 79.4029484,21.8605754 79.4029484,21.6928735 C79.4029484,18.9257927 82.1154791,14.7332462 83.8955774,12.469271 C84.2346437,12.0500163 84.4889435,12.0500163 84.5737101,12.0500163 C84.5737101,12.0500163 84.4889435,12.0500163 84.5737101,12.0500163 Z" id="Type" fill="#0079BF"></path>
                <path d="M2.88560886,3.39473684 L20.1143911,3.39473684 C21.7269373,3.39473684 23,4.66779957 23,6.2803457 L23,23.509128 C23,25.1216741 21.7269373,26.3947368 20.1143911,26.3947368 L2.88560886,26.3947368 C1.27306273,26.3947368 0,25.1216741 0,23.509128 L0,6.2803457 C0,4.66779957 1.27306273,3.39473684 2.88560886,3.39473684 Z" id="Board" fill="url(#linearGradient-1)"></path>
                <path d="M14.3658537,6.39473684 L18.6341463,6.39473684 C19.402439,6.39473684 20,6.98795718 20,7.75066905 L20,15.0388046 C20,15.8015165 19.402439,16.3947368 18.6341463,16.3947368 L14.3658537,16.3947368 C13.597561,16.3947368 13,15.8015165 13,15.0388046 L13,7.75066905 C13,7.07270294 13.597561,6.39473684 14.3658537,6.39473684 Z" id="Right-List" fill="#FFFFFF"></path>
                <path d="M4.36585366,6.39473684 L8.63414634,6.39473684 C9.40243902,6.39473684 10,7.00014225 10,7.77852063 L10,21.0109531 C10,21.7893314 9.40243902,22.3947368 8.63414634,22.3947368 L4.36585366,22.3947368 C3.59756098,22.3947368 3,21.7893314 3,21.0109531 L3,7.86500711 C3,7.08662873 3.59756098,6.39473684 4.36585366,6.39473684 Z" id="Left-List" fill="#FFFFFF"></path>
            </g>
        </g>
    </g>
</svg>